# xmcd
#
# Track frame offsets:
#  150
#  13682
#  23691
#  36427
#  55020
#  68541
#  84870
#  96461
#  108772
#  132577
#  149614
#  165502
#  181147
#  194324
#  208522
#
# Disc length: 3130 seconds
#
# Revision: 0
# Processed by: cddbd v1.5.2PL0 Copyright (c) Steve Scherf et al.
# Submitted via: Collectorz.com_Music_Collector 6.11
#
DISCID=c50c380f
DTITLE=Polanie - Polanie
DYEAR=1967
DGENRE=R&B
TTITLE0=A ty pocałujesz mnie
TTITLE1=Nie wiem sam
TTITLE2=Długo się znamy
TTITLE3=Nieprawda, nie wierzę
TTITLE4=Nie zawrócę
TTITLE5=Ciebie wybrałem
TTITLE6=Dlaczego tak mnie traktujesz
TTITLE7=I'm Crying
TTITLE8=Black Jack
TTITLE9=Sunny Afternoon
TTITLE10=Cool Jerk
TTITLE11=Summer In The City
TTITLE12=Down In The Valley
TTITLE13=Can You Hear Me
TTITLE14=Georgia On My Mind
EXTD=
EXTT0=
EXTT1=
EXTT2=
EXTT3=
EXTT4=
EXTT5=
EXTT6=
EXTT7=
EXTT8=
EXTT9=
EXTT10=
EXTT11=
EXTT12=
EXTT13=
EXTT14=
PLAYORDER=
